<?xml version="1.0" standalone="no"?>
<!DOCTYPE svg PUBLIC "-//W3C//DTD SVG 20010904//EN"
 "http://www.w3.org/TR/2001/REC-SVG-20010904/DTD/svg10.dtd">
<svg version="1.0" xmlns="http://www.w3.org/2000/svg"
 width="512.000000pt" height="512.000000pt" viewBox="0 0 512.000000 512.000000"
 preserveAspectRatio="xMidYMid meet">
<metadata>
Created by potrace 1.11, written by Peter Selinger 2001-2013
</metadata>
<g transform="translate(0.000000,512.000000) scale(0.100000,-0.100000)"
fill="#000000" stroke="none">
<path d="M2285 4492 c-69 -202 -201 -440 -392 -710 -57 -80 -108 -148 -125
-167 -7 -7 -24 -28 -38 -46 -112 -150 -378 -413 -570 -566 -58 -46 -111 -88
-119 -94 -7 -7 -70 -50 -140 -97 -69 -46 -131 -89 -138 -94 -9 -7 19 -34 101
-96 63 -48 165 -126 228 -174 63 -49 119 -88 125 -88 6 0 57 35 114 77 322
238 651 562 941 924 l85 107 617 0 c491 0 616 -3 616 -13 0 -40 -94 -276 -175
-440 -78 -158 -232 -426 -265 -459 -5 -5 -45 14 -92 41 -73 44 -297 173 -413
238 -22 12 -85 46 -140 75 -55 29 -116 62 -135 72 l-35 18 -45 -48 c-25 -26
-72 -79 -105 -116 -53 -61 -99 -112 -187 -209 -15 -17 -25 -34 -23 -38 3 -4
58 -38 122 -75 121 -70 471 -284 602 -368 l74 -48 -49 -50 c-61 -62 -236 -216
-329 -289 -312 -245 -687 -444 -1100 -584 -60 -20 -114 -41 -118 -45 -5 -4 3
-16 17 -27 21 -17 131 -112 170 -148 6 -5 58 -50 116 -100 58 -49 122 -106
144 -126 l39 -36 76 32 c42 17 105 44 141 59 172 73 482 245 660 365 64 43
304 224 326 245 6 6 40 36 75 66 35 30 121 112 191 182 l127 127 118 -86 c117
-85 236 -178 265 -206 13 -14 23 -5 84 75 38 49 80 103 94 120 14 17 71 90
127 162 l102 131 -22 18 c-12 10 -29 23 -37 30 -19 15 -225 151 -297 197 -29
18 -53 35 -53 38 0 2 17 29 39 60 184 272 417 726 510 999 46 132 73 199 126
310 30 64 53 119 49 122 -3 3 -101 65 -217 137 l-212 131 -50 -13 c-102 -27
-212 -32 -702 -33 -479 -2 -502 -1 -495 16 9 24 108 192 190 321 35 57 62 105
60 107 -2 2 -436 138 -590 185 -26 8 -27 7 -63 -98z"/>
</g>
</svg>
